<?xml version="1.0" standalone="no"?>
<!DOCTYPE svg PUBLIC "-//W3C//DTD SVG 20010904//EN"
 "http://www.w3.org/TR/2001/REC-SVG-20010904/DTD/svg10.dtd">
<svg version="1.0" xmlns="http://www.w3.org/2000/svg"
 width="600.000000pt" height="600.000000pt" viewBox="0 0 600.000000 600.000000"
 preserveAspectRatio="xMidYMid meet">
<metadata>
Created by potrace 1.14, written by Peter Selinger 2001-2017
</metadata>
<g transform="translate(0.000000,600.000000) scale(0.100000,-0.100000)"
fill="#000000" stroke="none">
<path d="M0 3000 l0 -3000 3000 0 3000 0 0 3000 0 3000 -3000 0 -3000 0 0
-3000z m2788 1685 c106 -60 192 -112 192 -115 0 -3 -17 -14 -38 -26 -20 -11
-85 -48 -144 -82 l-106 -62 -166 0 c-91 0 -166 3 -166 6 0 6 178 319 214 377
6 9 14 16 17 15 3 -2 92 -52 197 -113z m768 98 c36 -58 214 -371 214 -377 0
-3 -74 -6 -165 -6 l-166 0 -144 83 c-79 45 -145 85 -145 88 0 3 15 13 33 22
17 9 104 59 192 111 88 52 162 94 165 95 3 1 10 -7 16 -16z m-383 -320 l102
-58 -108 -3 c-59 -1 -153 -1 -209 0 l-100 3 99 57 c54 32 102 58 106 58 5 0
55 -26 110 -57z m-964 -150 c0 -5 -37 -71 -82 -147 l-82 -139 -144 -83 c-79
-46 -145 -84 -147 -84 -2 0 -4 104 -4 230 l0 230 230 0 c127 0 230 -3 229 -7z
m328 1 c-10 -10 -342 -202 -345 -199 -1 1 24 48 55 103 l58 102 119 0 c66 0
117 -3 113 -6z m1346 -96 c31 -55 56 -102 55 -103 -3 -3 -335 189 -345 199 -4
3 47 6 113 6 l119 0 58 -102z m497 -128 c0 -126 -2 -230 -5 -230 -2 0 -37 19
-77 43 -40 24 -105 62 -144 85 -71 41 -72 42 -153 182 -44 77 -81 142 -81 145
0 3 104 5 230 5 l230 0 0 -230z m-1346 165 c15 -25 29 -45 31 -45 2 0 16 20
30 44 24 42 28 44 51 34 l24 -11 -30 -53 c-16 -30 -30 -65 -30 -80 0 -14 48
-112 107 -217 354 -638 347 -625 333 -642 -10 -12 -43 -15 -162 -15 l-149 0
-69 148 c-39 81 -73 153 -77 160 -21 37 -28 9 -33 -131 -4 -132 -7 -150 -24
-163 -29 -21 -438 -21 -456 1 -14 17 -21 4 333 642 59 106 107 203 107 218 0
14 -13 49 -30 78 l-29 52 22 12 c12 7 23 12 24 13 0 0 13 -20 27 -45z m-1077
-382 c-3 -5 -46 -80 -96 -168 -51 -88 -97 -164 -102 -170 -5 -5 -9 37 -9 111
l0 119 98 57 c93 55 118 67 109 51z m2325 -50 l98 -57 0 -120 c0 -73 -4 -116
-9 -111 -5 6 -51 82 -101 170 -51 88 -94 163 -97 168 -9 15 14 5 109 -50z
m-2678 -560 c-36 -64 -74 -129 -83 -145 l-18 -28 -111 194 c-62 106 -112 197
-112 202 0 5 87 59 193 120 l192 111 3 -169 2 -170 -66 -115z m3094 320 c83
-49 152 -92 152 -97 0 -5 -50 -96 -112 -202 l-111 -194 -18 28 c-9 16 -47 81
-83 144 l-66 115 0 172 0 172 43 -25 c23 -14 111 -65 195 -113z m-3028 -575
l0 -203 -61 102 -60 103 58 100 c32 55 59 100 61 100 1 0 2 -91 2 -202z m2851
-100 l-61 -103 0 205 0 205 61 -102 60 -103 -60 -102z m-2031 -278 l0 -420
-30 0 -30 0 0 106 c0 124 16 118 -141 51 l-106 -45 -16 33 -15 32 136 50 137
50 3 137 3 136 -126 0 -125 0 0 30 0 29 123 3 122 3 3 113 3 112 29 0 30 0 0
-420z m230 265 c0 -108 3 -155 11 -155 15 0 120 70 180 121 l46 38 27 -28 26
-27 -114 -75 c-63 -41 -128 -82 -145 -91 l-31 -17 0 -174 c0 -121 4 -177 12
-185 8 -8 47 -12 110 -12 116 0 119 3 126 117 l5 72 30 -15 30 -16 -6 -73
c-10 -133 -37 -155 -192 -155 -100 0 -150 12 -165 40 -6 11 -10 172 -10 404
l0 386 30 0 30 0 0 -155z m1220 85 l0 -30 -335 0 -335 0 0 -140 0 -140 345 0
345 0 0 -30 0 -30 -170 0 c-93 0 -170 -4 -170 -9 0 -13 27 -75 51 -115 l21
-36 46 32 c26 17 66 47 90 65 l42 35 31 -20 30 -19 -98 -63 c-54 -35 -100 -65
-103 -68 -13 -12 107 -102 170 -127 67 -27 70 -29 56 -49 -21 -32 -42 -31
-121 8 -122 60 -225 185 -266 324 l-12 42 -59 0 -58 0 0 -150 c0 -173 -9 -161
110 -135 96 21 110 20 110 -10 0 -28 17 -23 -212 -69 l-168 -33 0 32 c0 30 3
32 48 41 l47 9 3 158 3 158 -58 -3 -58 -3 -7 -72 c-4 -40 -14 -103 -23 -140
-16 -67 -62 -183 -74 -183 -3 0 -16 8 -29 18 l-23 18 26 57 c46 100 64 218 71
474 l7 233 364 0 363 0 0 -30z m-2319 -252 l49 -87 -2 -169 -3 -169 -192 111
c-106 61 -193 115 -193 120 0 5 50 96 112 202 l111 194 35 -57 c19 -32 57 -97
83 -145z m3122 1 c59 -102 107 -190 107 -195 0 -5 -87 -59 -193 -120 l-192
-111 -3 170 -2 169 82 144 c46 79 85 140 89 136 3 -4 54 -91 112 -193z m-883
86 l0 -25 -255 0 -255 0 0 25 0 25 255 0 255 0 0 -25z m-1996 -505 c52 -91 93
-166 91 -168 -2 -3 -49 22 -104 54 l-101 59 0 119 c0 74 4 116 9 111 5 -6 52
-84 105 -175z m2516 62 l0 -118 -100 -58 c-56 -32 -103 -57 -105 -54 -2 2 22
48 54 103 32 55 77 133 100 173 23 39 44 72 46 72 3 0 5 -53 5 -118z m-2479
-296 l144 -83 82 -139 c45 -76 82 -142 82 -146 1 -5 -102 -8 -229 -8 l-230 0
0 230 c0 127 2 230 4 230 2 0 68 -38 147 -84z m2479 -146 l0 -230 -230 0
c-126 0 -230 2 -230 5 0 3 37 68 81 145 81 140 82 141 153 182 39 23 103 61
141 84 39 23 73 43 78 43 4 1 7 -102 7 -229z m-1601 63 c-4 -27 -8 -58 -8 -70
-1 -22 -1 -22 24 2 36 37 82 31 87 -10 4 -34 -14 -175 -23 -181 -12 -7 -11 22
2 107 8 53 8 73 -1 84 -18 22 -28 19 -65 -18 -27 -27 -34 -44 -40 -93 -8 -63
-24 -108 -25 -66 0 20 21 178 35 260 3 17 9 32 14 32 4 0 4 -21 0 -47z m-105
-49 c9 -3 16 -10 16 -15 0 -5 -12 -4 -26 2 -32 11 -70 -9 -83 -44 -22 -57 -23
-103 -2 -128 17 -22 22 -23 51 -12 24 9 30 9 27 0 -4 -15 -41 -21 -73 -13 -29
8 -45 58 -34 115 14 77 66 117 124 95z m414 -6 c7 -7 12 -24 12 -39 0 -36 -39
-66 -96 -75 -50 -7 -59 -29 -24 -64 23 -23 29 -24 64 -10 14 5 26 6 26 1 0
-18 -61 -28 -94 -15 -23 9 -37 72 -26 118 16 74 98 124 138 84z m102 -10 l0
-22 20 22 c20 22 67 32 55 12 -3 -5 -15 -10 -26 -10 -25 0 -56 -51 -64 -104
-11 -74 -16 -96 -24 -96 -4 0 0 50 8 110 8 61 18 110 23 110 4 0 8 -10 8 -22z
m164 1 c19 21 63 30 51 11 -3 -5 -14 -10 -24 -10 -28 0 -52 -45 -65 -121 -11
-64 -26 -102 -26 -65 0 22 19 154 27 186 l6 25 6 -23 6 -24 19 21z m107 -87
l16 -97 27 60 c15 33 36 80 47 104 11 24 22 41 25 38 4 -3 -17 -60 -46 -126
-51 -117 -95 -178 -122 -168 -8 3 -4 9 13 16 45 22 48 37 28 146 -20 110 -23
142 -11 131 4 -4 14 -51 23 -104z m-1081 -42 c80 -46 149 -87 155 -92 5 -4
-44 -8 -110 -8 l-120 0 -55 97 c-68 120 -68 121 -39 102 13 -9 89 -53 169 -99z
m1503 2 l-58 -102 -119 0 c-66 0 -117 3 -113 6 10 10 342 202 345 199 1 -1
-24 -48 -55 -103z m-1048 -264 c79 -46 144 -85 145 -88 0 -3 -89 -56 -197
-118 -147 -84 -199 -110 -205 -100 -45 74 -217 375 -218 381 0 4 74 7 165 7
l166 0 144 -82z m435 78 c0 -2 -46 -30 -102 -62 l-102 -57 -61 33 c-33 18 -80
46 -105 61 l-45 29 208 0 c114 0 207 -2 207 -4z m500 -3 c-1 -6 -174 -309
-218 -381 -6 -9 -61 18 -205 100 -108 62 -196 115 -196 118 0 3 64 42 142 87
l142 82 168 0 c92 1 167 -2 167 -6z"/>
<path d="M3024 1930 c-28 -11 -54 -48 -54 -77 0 -20 4 -23 28 -17 56 13 77 28
80 58 2 16 -2 32 -10 37 -15 10 -17 10 -44 -1z"/>
</g>
</svg>
