<svg version="1.0" xmlns="http://www.w3.org/2000/svg" width="800" height="800" viewBox="0 0 600 600"><path d="M0 300v300h600V0H0v300zm278.8-168.5c10.6 6 19.2 11.2 19.2 11.5 0 .3-1.7 1.4-3.8 2.6-2 1.1-8.5 4.8-14.4 8.2l-10.6 6.2h-16.6c-9.1 0-16.6-.3-16.6-.6 0-.6 17.8-31.9 21.4-37.7.6-.9 1.4-1.6 1.7-1.5.3.2 9.2 5.2 19.7 11.3zm76.8-9.8c3.6 5.8 21.4 37.1 21.4 37.7 0 .3-7.4.6-16.5.6h-16.6l-14.4-8.3c-7.9-4.5-14.5-8.5-14.5-8.8 0-.3 1.5-1.3 3.3-2.2 1.7-.9 10.4-5.9 19.2-11.1 8.8-5.2 16.2-9.4 16.5-9.5.3-.1 1 .7 1.6 1.6zm-38.3 32l10.2 5.8-10.8.3c-5.9.1-15.3.1-20.9 0l-10-.3 9.9-5.7c5.4-3.2 10.2-5.8 10.6-5.8.5 0 5.5 2.6 11 5.7zm-96.4 15c0 .5-3.7 7.1-8.2 14.7l-8.2 13.9-14.4 8.3c-7.9 4.6-14.5 8.4-14.7 8.4-.2 0-.4-10.4-.4-23v-23h23c12.7 0 23 .3 22.9.7zm32.8-.1c-1 1-34.2 20.2-34.5 19.9-.1-.1 2.4-4.8 5.5-10.3l5.8-10.2h11.9c6.6 0 11.7.3 11.3.6zm134.6 9.6c3.1 5.5 5.6 10.2 5.5 10.3-.3.3-33.5-18.9-34.5-19.9-.4-.3 4.7-.6 11.3-.6h11.9l5.8 10.2zM438 191c0 12.6-.2 23-.5 23-.2 0-3.7-1.9-7.7-4.3s-10.5-6.2-14.4-8.5c-7.1-4.1-7.2-4.2-15.3-18.2-4.4-7.7-8.1-14.2-8.1-14.5 0-.3 10.4-.5 23-.5h23v23zm-134.6-16.5c1.5 2.5 2.9 4.5 3.1 4.5.2 0 1.6-2 3-4.4 2.4-4.2 2.8-4.4 5.1-3.4l2.4 1.1-3 5.3c-1.6 3-3 6.5-3 8 0 1.4 4.8 11.2 10.7 21.7 35.4 63.8 34.7 62.5 33.3 64.2-1 1.2-4.3 1.5-16.2 1.5h-14.9l-6.9-14.8c-3.9-8.1-7.3-15.3-7.7-16-2.1-3.7-2.8-.9-3.3 13.1-.4 13.2-.7 15-2.4 16.3-2.9 2.1-43.8 2.1-45.6-.1-1.4-1.7-2.1-.4 33.3-64.2 5.9-10.6 10.7-20.3 10.7-21.8 0-1.4-1.3-4.9-3-7.8l-2.9-5.2 2.2-1.2c1.2-.7 2.3-1.2 2.4-1.3 0 0 1.3 2 2.7 4.5zm-107.7 38.2c-.3.5-4.6 8-9.6 16.8-5.1 8.8-9.7 16.4-10.2 17-.5.5-.9-3.7-.9-11.1v-11.9l9.8-5.7c9.3-5.5 11.8-6.7 10.9-5.1zm232.5 5l9.8 5.7v12c0 7.3-.4 11.6-.9 11.1-.5-.6-5.1-8.2-10.1-17-5.1-8.8-9.4-16.3-9.7-16.8-.9-1.5 1.4-.5 10.9 5zm-267.8 56c-3.6 6.4-7.4 12.9-8.3 14.5l-1.8 2.8-11.1-19.4C133 261 128 251.9 128 251.4s8.7-5.9 19.3-12l19.2-11.1.3 16.9.2 17-6.6 11.5zm309.4-32c8.3 4.9 15.2 9.2 15.2 9.7s-5 9.6-11.2 20.2L462.7 291l-1.8-2.8c-.9-1.6-4.7-8.1-8.3-14.4l-6.6-11.5v-34.4l4.3 2.5c2.3 1.4 11.1 6.5 19.5 11.3zM167 299.2v20.3l-6.1-10.2-6-10.3 5.8-10c3.2-5.5 5.9-10 6.1-10 .1 0 .2 9.1.2 20.2zm285.1 10l-6.1 10.3v-41l6.1 10.2 6 10.3-6 10.2zM249 337v42h-6v-10.6c0-12.4 1.6-11.8-14.1-5.1l-10.6 4.5-1.6-3.3-1.5-3.2 13.6-5 13.7-5 .3-13.7.3-13.6H218v-5.9l12.3-.3 12.2-.3.3-11.3.3-11.2h5.9v42zm23-26.5c0 10.8.3 15.5 1.1 15.5 1.5 0 12-7 18-12.1l4.6-3.8 2.7 2.8 2.6 2.7-11.4 7.5c-6.3 4.1-12.8 8.2-14.5 9.1l-3.1 1.7v17.4c0 12.1.4 17.7 1.2 18.5.8.8 4.7 1.2 11 1.2 11.6 0 11.9-.3 12.6-11.7l.5-7.2 3 1.5 3 1.6-.6 7.3c-1 13.3-3.7 15.5-19.2 15.5-10 0-15-1.2-16.5-4-.6-1.1-1-17.2-1-40.4V295h6v15.5zm122-8.5v3h-67v28h69v6h-17c-9.3 0-17 .4-17 .9 0 1.3 2.7 7.5 5.1 11.5l2.1 3.6 4.6-3.2c2.6-1.7 6.6-4.7 9-6.5l4.2-3.5 3.1 2 3 1.9-9.8 6.3c-5.4 3.5-10 6.5-10.3 6.8-1.3 1.2 10.7 10.2 17 12.7 6.7 2.7 7 2.9 5.6 4.9-2.1 3.2-4.2 3.1-12.1-.8-12.2-6-22.5-18.5-26.6-32.4l-1.2-4.2H344v15c0 17.3-.9 16.1 11 13.5 9.6-2.1 11-2 11 1 0 2.8 1.7 2.3-21.2 6.9l-16.8 3.3v-3.2c0-3 .3-3.2 4.8-4.1l4.7-.9.3-15.8.3-15.8-5.8.3-5.8.3-.7 7.2c-.4 4-1.4 10.3-2.3 14-1.6 6.7-6.2 18.3-7.4 18.3-.3 0-1.6-.8-2.9-1.8l-2.3-1.8 2.6-5.7c4.6-10 6.4-21.8 7.1-47.4l.7-23.3H394v3zm-231.9 25.2l4.9 8.7-.2 16.9-.3 16.9-19.2-11.1c-10.6-6.1-19.3-11.5-19.3-12s5-9.6 11.2-20.2l11.1-19.4 3.5 5.7c1.9 3.2 5.7 9.7 8.3 14.5zm312.2-.1c5.9 10.2 10.7 19 10.7 19.5s-8.7 5.9-19.3 12l-19.2 11.1-.3-17-.2-16.9 8.2-14.4c4.6-7.9 8.5-14 8.9-13.6.3.4 5.4 9.1 11.2 19.3zm-88.3-8.6v2.5h-51v-5h51v2.5zM186.4 369c5.2 9.1 9.3 16.6 9.1 16.8-.2.3-4.9-2.2-10.4-5.4l-10.1-5.9v-11.9c0-7.4.4-11.6.9-11.1.5.6 5.2 8.4 10.5 17.5zm251.6-6.2v11.8l-10 5.8c-5.6 3.2-10.3 5.7-10.5 5.4-.2-.2 2.2-4.8 5.4-10.3 3.2-5.5 7.7-13.3 10-17.3 2.3-3.9 4.4-7.2 4.6-7.2.3 0 .5 5.3.5 11.8zm-247.9 29.6l14.4 8.3 8.2 13.9c4.5 7.6 8.2 14.2 8.2 14.6.1.5-10.2.8-22.9.8h-23v-23c0-12.7.2-23 .4-23s6.8 3.8 14.7 8.4zM438 407v23h-23c-12.6 0-23-.2-23-.5s3.7-6.8 8.1-14.5c8.1-14 8.2-14.1 15.3-18.2 3.9-2.3 10.3-6.1 14.1-8.4 3.9-2.3 7.3-4.3 7.8-4.3.4-.1.7 10.2.7 22.9zm-160.1-6.3c-.4 2.7-.8 5.8-.8 7-.1 2.2-.1 2.2 2.4-.2 3.6-3.7 8.2-3.1 8.7 1 .4 3.4-1.4 17.5-2.3 18.1-1.2.7-1.1-2.2.2-10.7.8-5.3.8-7.3-.1-8.4-1.8-2.2-2.8-1.9-6.5 1.8-2.7 2.7-3.4 4.4-4 9.3-.8 6.3-2.4 10.8-2.5 6.6 0-2 2.1-17.8 3.5-26 .3-1.7.9-3.2 1.4-3.2.4 0 .4 2.1 0 4.7zm-10.5 4.9c.9.3 1.6 1 1.6 1.5s-1.2.4-2.6-.2c-3.2-1.1-7 .9-8.3 4.4-2.2 5.7-2.3 10.3-.2 12.8 1.7 2.2 2.2 2.3 5.1 1.2 2.4-.9 3-.9 2.7 0-.4 1.5-4.1 2.1-7.3 1.3-2.9-.8-4.5-5.8-3.4-11.5 1.4-7.7 6.6-11.7 12.4-9.5zm41.4.6c.7.7 1.2 2.4 1.2 3.9 0 3.6-3.9 6.6-9.6 7.5-5 .7-5.9 2.9-2.4 6.4 2.3 2.3 2.9 2.4 6.4 1 1.4-.5 2.6-.6 2.6-.1 0 1.8-6.1 2.8-9.4 1.5-2.3-.9-3.7-7.2-2.6-11.8 1.6-7.4 9.8-12.4 13.8-8.4zm10.2 1v2.2l2-2.2c2-2.2 6.7-3.2 5.5-1.2-.3.5-1.5 1-2.6 1-2.5 0-5.6 5.1-6.4 10.4-1.1 7.4-1.6 9.6-2.4 9.6-.4 0 0-5 .8-11 .8-6.1 1.8-11 2.3-11 .4 0 .8 1 .8 2.2zm16.4-.1c1.9-2.1 6.3-3 5.1-1.1-.3.5-1.4 1-2.4 1-2.8 0-5.2 4.5-6.5 12.1-1.1 6.4-2.6 10.2-2.6 6.5 0-2.2 1.9-15.4 2.7-18.6l.6-2.5.6 2.3.6 2.4 1.9-2.1zm10.7 8.7l1.6 9.7 2.7-6c1.5-3.3 3.6-8 4.7-10.4 1.1-2.4 2.2-4.1 2.5-3.8.4.3-1.7 6-4.6 12.6-5.1 11.7-9.5 17.8-12.2 16.8-.8-.3-.4-.9 1.3-1.6 4.5-2.2 4.8-3.7 2.8-14.6-2-11-2.3-14.2-1.1-13.1.4.4 1.4 5.1 2.3 10.4zM238 420c8 4.6 14.9 8.7 15.5 9.2.5.4-4.4.8-11 .8h-12l-5.5-9.7c-6.8-12-6.8-12.1-3.9-10.2 1.3.9 8.9 5.3 16.9 9.9zm150.3-.2l-5.8 10.2h-11.9c-6.6 0-11.7-.3-11.3-.6 1-1 34.2-20.2 34.5-19.9.1.1-2.4 4.8-5.5 10.3zm-104.8 26.4c7.9 4.6 14.4 8.5 14.5 8.8 0 .3-8.9 5.6-19.7 11.8-14.7 8.4-19.9 11-20.5 10-4.5-7.4-21.7-37.5-21.8-38.1 0-.4 7.4-.7 16.5-.7h16.6l14.4 8.2zm43.5-7.8c0 .2-4.6 3-10.2 6.2l-10.2 5.7-6.1-3.3c-3.3-1.8-8-4.6-10.5-6.1l-4.5-2.9h20.8c11.4 0 20.7.2 20.7.4zm50 .3c-.1.6-17.4 30.9-21.8 38.1-.6.9-6.1-1.8-20.5-10-10.8-6.2-19.6-11.5-19.6-11.8 0-.3 6.4-4.2 14.2-8.7l14.2-8.2h16.8c9.2-.1 16.7.2 16.7.6z"/><path d="M302.4 407c-2.8 1.1-5.4 4.8-5.4 7.7 0 2 .4 2.3 2.8 1.7 5.6-1.3 7.7-2.8 8-5.8.2-1.6-.2-3.2-1-3.7-1.5-1-1.7-1-4.4.1z"/></svg>